<svg id="Layer_1" data-name="Layer 1" xmlns="http://www.w3.org/2000/svg" xmlns:xlink="http://www.w3.org/1999/xlink" viewBox="0 0 256 256"><defs><style>.cls-1{fill:none;}.cls-2{fill:url(#linear-gradient);}.cls-3{clip-path:url(#clip-path);}.cls-4{fill:url(#linear-gradient-2);}</style><linearGradient id="linear-gradient" x1="196.97" y1="-30.04" x2="217.31" y2="-30.04" gradientTransform="matrix(0.86, 0.51, 0.4, -0.69, 39.3, 46.24)" gradientUnits="userSpaceOnUse"><stop offset="0" stop-color="#8f94fb"/><stop offset="0.06" stop-color="#868bf3"/><stop offset="0.23" stop-color="#7276df"/><stop offset="0.42" stop-color="#6367d1"/><stop offset="0.65" stop-color="#5b5fc9"/><stop offset="1" stop-color="#585cc6"/></linearGradient><clipPath id="clip-path"><path class="cls-1" d="M93.36,59.21a6.78,6.78,0,0,1,2.19,4.95,15.41,15.41,0,0,1-1.75,5.78L45.68,173.66c-1.22,2.58-2.32,4.27-3.3,5.05a7.09,7.09,0,0,1-4.61,1.54,7.28,7.28,0,0,1-5.31-2.2,6.82,6.82,0,0,1-2.24-5A15.56,15.56,0,0,1,32,167.28L80.25,63.65a15.91,15.91,0,0,1,3.22-5.06,7.59,7.59,0,0,1,9.89.62Zm80.91,103.46a7.19,7.19,0,0,0,5.28-2.31,7.52,7.52,0,0,0,2.27-5.45,6.72,6.72,0,0,0-1.21-4.11,16.32,16.32,0,0,0-4.87-3.66l-48.63-26.95,48.63-26.95a16.15,16.15,0,0,0,4.87-3.67,6.67,6.67,0,0,0,1.21-4.1,7.75,7.75,0,0,0-7.62-7.69q-1.9,0-5.86,2.13L95.9,120.19l72.44,40.28Q172.3,162.68,174.27,162.67Zm51.51-19.79a8.35,8.35,0,0,0-5.42-7.82,62.26,62.26,0,0,0-18.25-42.71,63,63,0,0,1,13.51,39.08q0,1.66-.09,3.3a8.36,8.36,0,0,0-2.65,15.17,63.38,63.38,0,0,1-18,28.37,6.72,6.72,0,0,0-9.31,6.2,6.84,6.84,0,0,0,.05.79,63.35,63.35,0,0,1-66.46.17,62.34,62.34,0,0,0,70.14,5,6.65,6.65,0,0,0,3,.71,6.72,6.72,0,0,0,6.72-6.72,6.82,6.82,0,0,0-.07-.9,62.42,62.42,0,0,0,19.69-32.43A8.36,8.36,0,0,0,225.78,142.88Z"/></clipPath><linearGradient id="linear-gradient-2" x1="24.98" y1="127.14" x2="230.16" y2="127.14" gradientUnits="userSpaceOnUse"><stop offset="0" stop-color="#8f94fb"/><stop offset="1" stop-color="#4e54c8"/></linearGradient></defs><path class="cls-2" d="M202.25,177.83a17.63,17.63,0,0,0,1.17-11.23,17,17,0,0,0-2.82-6l17.55,10.3a15,15,0,0,0-7.43.31A15.55,15.55,0,0,0,202.25,177.83Z"/><g class="cls-3"><rect class="cls-4" x="24.98" y="51.71" width="205.17" height="150.86"/></g></svg>